<svg xmlns="http://www.w3.org/2000/svg" viewBox="0 0 64 64" width="64" height="64">
  <g transform="translate(-2.4362325,0.57567749)">
    <path d="M 11.680034,14.016791 H 23.66881 l 4.521932,11.27376 h 7.618504 l 4.572731,-11.27376 H 52.319954 V 49.98312 l -3.730435,-5.676836 -4.19435,-21.90751 H 44.29357 l -8.489993,27.571562 -7.609627,0.0083 -8.487532,-27.579826 h -0.1016 v 27.58431 h -7.924784 z" fill="#e8eeff"></path>
    <path d="M 44.700171,14.016784 V 21.3321 h -4.876705 v 6.096268 h 4.876705 V 42.51892 c 0,1.354664 0.220158,2.505788 0.660424,3.454053 0.474133,0.948265 1.117317,1.727209 1.930115,2.336808 0.812799,0.575732 1.761057,0.999274 2.844788,1.270207 1.083731,0.270933 2.269441,0.406177 3.556372,0.406177 0.880531,0 1.777943,-0.05085 2.692342,-0.152446 0.272458,-0.03027 0.541775,-0.06951 0.808219,-0.117822 v -6.201172 c -0.504451,0.0472 -0.926304,0.0708 -1.265556,0.0708 -0.812798,0 -1.473275,-0.101692 -1.981274,-0.304891 -0.474132,-0.237066 -0.829535,-0.558917 -1.066602,-0.965316 -0.237066,-0.406399 -0.389606,-0.88027 -0.457336,-1.422135 -0.06773,-0.575733 -0.101803,-1.20214 -0.101803,-1.879472 v -11.58534 h 4.872571 V 21.3321 H 52.31986 v -7.315316 z" fill="#0066ff"></path>
    <text x="25.396008" y="49.983238" font-family="Arial Black, Avenir, sans-serif" font-weight="900" font-size="50.8" fill="#0066ff">i</text>
    <text x="24.456717" y="21.904837" font-family="Arial Black, Avenir, sans-serif" font-weight="900" font-size="50.8" fill="#ff2d2d">.</text>
  </g>
</svg>