<?xml version="1.0" encoding="UTF-8" standalone="no"?>
<!-- Created with Inkscape (http://www.inkscape.org/) -->

<svg
   width="64mm"
   height="64mm"
   viewBox="0 0 64 64"
   version="1.1"
   id="svg1"
   sodipodi:docname="Logo klein ink.svg"
   inkscape:version="1.4.2 (f4327f4, 2025-05-13)"
   inkscape:export-filename="Exports\Logo klein ink 128x128.png"
   inkscape:export-xdpi="50.799999"
   inkscape:export-ydpi="50.799999"
   xmlns:inkscape="http://www.inkscape.org/namespaces/inkscape"
   xmlns:sodipodi="http://sodipodi.sourceforge.net/DTD/sodipodi-0.dtd"
   xmlns="http://www.w3.org/2000/svg"
   xmlns:svg="http://www.w3.org/2000/svg">
  <sodipodi:namedview
     id="namedview1"
     pagecolor="#ffffff"
     bordercolor="#000000"
     borderopacity="0.25"
     inkscape:showpageshadow="2"
     inkscape:pageopacity="0.0"
     inkscape:pagecheckerboard="0"
     inkscape:deskcolor="#d1d1d1"
     inkscape:document-units="mm"
     inkscape:zoom="3.6586914"
     inkscape:cx="120.94488"
     inkscape:cy="120.94488"
     inkscape:window-width="1920"
     inkscape:window-height="1129"
     inkscape:window-x="1912"
     inkscape:window-y="-8"
     inkscape:window-maximized="1"
     inkscape:current-layer="g23"
     inkscape:export-bgcolor="#00000000"
     showguides="true" />
  <defs
     id="defs1">
    <rect
       x="-1618.4005"
       y="-89.91114"
       width="3716.3271"
       height="539.46686"
       id="rect7" />
    <rect
       x="179.82228"
       y="119.88152"
       width="15045.13"
       height="3536.5049"
       id="rect6" />
  </defs>
  <g
     inkscape:label="Logo met grote t"
     inkscape:groupmode="layer"
     id="layer1"
     style="display:none">
    <g
       id="g20"
       transform="translate(-3.3528235,0.57560699)"
       inkscape:label="Logo">
      <path
         d="M 11.680034,14.016791 H 23.66881 l 4.521932,11.27376 h 7.618504 l 4.572731,-11.27376 H 52.319954 V 49.98312 l -3.730435,-5.676836 -4.19435,-21.90751 H 44.29357 l -8.489993,27.571562 -7.609627,0.0083 -8.487532,-27.579826 h -0.1016 v 27.58431 h -7.924784 z"
         id="text19"
         style="font-weight:800;font-size:50.7999px;font-family:Avenir;-inkscape-font-specification:'Avenir, Ultra-Bold';white-space:pre;fill:#00007f;stroke-width:79.3749"
         inkscape:label="M"
         aria-label="M"
         sodipodi:nodetypes="ccccccccccccccccc" />
      <path
         d="m 59.025613,27.428153 h -6.705586 v 11.585374 c 0,0.677332 0.03387,1.303864 0.101599,1.879597 0.06773,0.541865 0.220133,1.015998 0.457199,1.422397 0.237067,0.406399 0.592666,0.728132 1.066798,0.965198 0.507999,0.203199 1.168398,0.304799 1.981196,0.304799 0.406399,0 0.931332,-0.03387 1.574797,-0.101599 0.677332,-0.1016 1.185331,-0.3048 1.523997,-0.609599 v 6.349987 c -0.846665,0.304799 -1.727196,0.507999 -2.641594,0.609599 -0.914399,0.1016 -1.811864,0.1524 -2.692395,0.1524 -1.286931,0 -2.472262,-0.135466 -3.555993,-0.406399 C 49.0519,49.308974 48.103635,48.885641 47.290836,48.309909 46.478038,47.70031 45.834573,46.921379 45.36044,45.973114 44.920174,45.024849 44.700041,43.873384 44.700041,42.51872 V 27.428153 h -4.87679 v -6.095988 h 4.87679 v -7.315186 h 7.619986 v 7.315186 h 6.705586 z"
         id="text9"
         style="font-weight:800;font-size:50.7999px;font-family:Avenir;-inkscape-font-specification:'Avenir, Ultra-Bold';white-space:pre;fill:#0000ff;stroke-width:79.3749"
         inkscape:label="t"
         aria-label="t"
         sodipodi:nodetypes="ccscscscccsssccsccccccccc" />
      <text
         x="25.396008"
         y="49.983238"
         style="font-style:normal;font-variant:normal;font-weight:800;font-stretch:normal;font-size:50.7999px;font-family:Avenir;-inkscape-font-specification:'Avenir, Ultra-Bold';text-align:start;writing-mode:lr-tb;white-space:pre;display:inline;fill:#0000ff;fill-opacity:1;stroke:none;stroke-width:79.3749"
         id="text10"
         inkscape:label="i"><tspan
           x="25.396008"
           y="49.983238"
           id="tspan10"
           style="stroke-width:79.3749">i</tspan></text>
      <text
         x="24.456717"
         y="21.904837"
         style="font-style:normal;font-variant:normal;font-weight:800;font-stretch:normal;font-size:50.7999px;font-family:Avenir;-inkscape-font-specification:'Avenir, Ultra-Bold';text-align:start;writing-mode:lr-tb;white-space:pre;fill:#ff0000;fill-opacity:1;stroke:none;stroke-width:79.3749"
         id="text11"
         inkscape:label="."><tspan
           x="24.456717"
           y="21.904837"
           id="tspan11"
           style="stroke-width:79.3749">.</tspan></text>
    </g>
  </g>
  <g
     inkscape:label="Logo met kleine t"
     inkscape:groupmode="layer"
     id="g23">
    <g
       id="g22"
       transform="translate(-2.4362325,0.57567749)"
       inkscape:label="Logo">
      <path
         d="M 11.680034,14.016791 H 23.66881 l 4.521932,11.27376 h 7.618504 l 4.572731,-11.27376 H 52.319954 V 49.98312 l -3.730435,-5.676836 -4.19435,-21.90751 H 44.29357 l -8.489993,27.571562 -7.609627,0.0083 -8.487532,-27.579826 h -0.1016 v 27.58431 h -7.924784 z"
         id="path20"
         style="font-weight:800;font-size:50.7999px;font-family:Avenir;-inkscape-font-specification:'Avenir, Ultra-Bold';white-space:pre;fill:#00007f;stroke-width:79.3749"
         inkscape:label="M"
         aria-label="M"
         sodipodi:nodetypes="ccccccccccccccccc" />
      <path
         id="path21"
         style="font-weight:800;font-size:50.7999px;font-family:Avenir;-inkscape-font-specification:'Avenir, Ultra-Bold';white-space:pre;fill:#0000ff;stroke-width:79.3749"
         inkscape:label="t"
         d="M 44.700171,14.016784 V 21.3321 h -4.876705 v 6.096268 h 4.876705 V 42.51892 c 0,1.354664 0.220158,2.505788 0.660424,3.454053 0.474133,0.948265 1.117317,1.727209 1.930115,2.336808 0.812799,0.575732 1.761057,0.999274 2.844788,1.270207 1.083731,0.270933 2.269441,0.406177 3.556372,0.406177 0.880531,0 1.777943,-0.05085 2.692342,-0.152446 0.272458,-0.03027 0.541775,-0.06951 0.808219,-0.117822 v -6.201172 c -0.504451,0.0472 -0.926304,0.0708 -1.265556,0.0708 -0.812798,0 -1.473275,-0.101692 -1.981274,-0.304891 -0.474132,-0.237066 -0.829535,-0.558917 -1.066602,-0.965316 -0.237066,-0.406399 -0.389606,-0.88027 -0.457336,-1.422135 -0.06773,-0.575733 -0.101803,-1.20214 -0.101803,-1.879472 v -11.58534 h 4.872571 V 21.3321 H 52.31986 v -7.315316 z" />
      <text
         x="25.396008"
         y="49.983238"
         style="font-style:normal;font-variant:normal;font-weight:800;font-stretch:normal;font-size:50.7999px;font-family:Avenir;-inkscape-font-specification:'Avenir, Ultra-Bold';text-align:start;writing-mode:lr-tb;white-space:pre;display:inline;fill:#0000ff;fill-opacity:1;stroke:none;stroke-width:79.3749"
         id="text21"
         inkscape:label="i"><tspan
           x="25.396008"
           y="49.983238"
           id="tspan21"
           style="stroke-width:79.3749">i</tspan></text>
      <text
         x="24.456717"
         y="21.904837"
         style="font-style:normal;font-variant:normal;font-weight:800;font-stretch:normal;font-size:50.7999px;font-family:Avenir;-inkscape-font-specification:'Avenir, Ultra-Bold';text-align:start;writing-mode:lr-tb;white-space:pre;fill:#ff0000;fill-opacity:1;stroke:none;stroke-width:79.3749"
         id="text22"
         inkscape:label="."><tspan
           x="24.456717"
           y="21.904837"
           id="tspan22"
           style="stroke-width:79.3749">.</tspan></text>
    </g>
  </g>
</svg>
